<?xml version="1.0" standalone="no"?>
<svg xmlns:xlink="http://www.w3.org/1999/xlink" id="wave" style="transform:rotate(180deg); transition: 0.3s" viewBox="0 0 1440 100" version="1.1" xmlns="http://www.w3.org/2000/svg"><defs><linearGradient id="sw-gradient-0" x1="0" x2="0" y1="1" y2="0"><stop stop-color="rgba(249, 115, 22, 1)" offset="0%"/><stop stop-color="rgba(249, 115, 22, 1)" offset="100%"/></linearGradient></defs><path style="transform:translate(0, 0px); opacity:1" fill="url(#sw-gradient-0)" d="M0,60L80,61.7C160,63,320,67,480,71.7C640,77,800,83,960,83.3C1120,83,1280,77,1440,63.3C1600,50,1760,30,1920,26.7C2080,23,2240,37,2400,50C2560,63,2720,77,2880,83.3C3040,90,3200,90,3360,83.3C3520,77,3680,63,3840,53.3C4000,43,4160,37,4320,43.3C4480,50,4640,70,4800,80C4960,90,5120,90,5280,81.7C5440,73,5600,57,5760,51.7C5920,47,6080,53,6240,56.7C6400,60,6560,60,6720,63.3C6880,67,7040,73,7200,75C7360,77,7520,73,7680,61.7C7840,50,8000,30,8160,31.7C8320,33,8480,57,8640,68.3C8800,80,8960,80,9120,75C9280,70,9440,60,9600,60C9760,60,9920,70,10080,70C10240,70,10400,60,10560,55C10720,50,10880,50,11040,48.3C11200,47,11360,43,11440,41.7L11520,40L11520,100L11440,100C11360,100,11200,100,11040,100C10880,100,10720,100,10560,100C10400,100,10240,100,10080,100C9920,100,9760,100,9600,100C9440,100,9280,100,9120,100C8960,100,8800,100,8640,100C8480,100,8320,100,8160,100C8000,100,7840,100,7680,100C7520,100,7360,100,7200,100C7040,100,6880,100,6720,100C6560,100,6400,100,6240,100C6080,100,5920,100,5760,100C5600,100,5440,100,5280,100C5120,100,4960,100,4800,100C4640,100,4480,100,4320,100C4160,100,4000,100,3840,100C3680,100,3520,100,3360,100C3200,100,3040,100,2880,100C2720,100,2560,100,2400,100C2240,100,2080,100,1920,100C1760,100,1600,100,1440,100C1280,100,1120,100,960,100C800,100,640,100,480,100C320,100,160,100,80,100L0,100Z"/></svg>